<svg xmlns="http://www.w3.org/2000/svg" viewBox="0 0 800 600" fill="none">
  <title>Declared Human-Made — Collection</title>
  <rect width="800" height="600" fill="#f7f3ea"/>
  <rect width="800" height="600" fill="url(#grid)" opacity="0.04"/>
  <defs>
    <pattern id="grid" width="24" height="24" patternUnits="userSpaceOnUse">
      <rect width="24" height="24" fill="none"/>
      <path d="M 24 0 L 0 0 0 24" fill="none" stroke="#14130f" strokeWidth="0.5"/>
    </pattern>
  </defs>
  <path d="M 30 30 L 30 14 L 14 14 L 14 30 Z" fill="none" stroke="#d8cfbf" strokeWidth="1.5"/>
  <path d="M 770 570 L 770 586 L 786 586 L 786 570 Z" fill="none" stroke="#d8cfbf" strokeWidth="1.5"/>
  <path d="M 200 150 L 600 150 L 600 450 L 200 450 Z" fill="none" stroke="#ff00f0" strokeWidth="1.5" opacity="0.12" rx="4"/>
  <path d="M 350 200 L 450 200 L 450 300 L 350 300 Z" fill="none" stroke="#ff00f0" strokeWidth="1" opacity="0.15"/>
  <path d="M 370 250 L 430 250" stroke="#ff00f0" strokeWidth="1" opacity="0.1"/>
  <path d="M 370 270 L 410 270" stroke="#ff00f0" strokeWidth="1" opacity="0.1"/>
  <text x="400" y="390" fontFamily="system-ui, sans-serif" fontWeight="700" fontSize="24" fill="#14130f" textAnchor="middle" opacity="0.08">HUMAN-MADE</text>
  <text x="400" y="420" fontFamily="system-ui, sans-serif" fontWeight="500" fontSize="14" fill="#14130f" textAnchor="middle" opacity="0.06">declared works</text>
  <circle cx="600" cy="200" r="5" fill="#ff00f0" opacity="0.3"/>
  <g opacity="0.08" transform="translate(720, 540)">
    <path d="M 5 5 v 14 h 14" stroke="#14130f" strokeWidth="2" strokeLinecap="round" strokeLinejoin="round"/>
    <line x1="17.5" y1="6.5" x2="8.5" y2="15.5" stroke="#14130f" strokeWidth="2" strokeLinecap="round"/>
    <circle cx="19.5" cy="19.5" r="1.5" fill="#ff00f0"/>
  </g>
</svg>