<svg xmlns="http://www.w3.org/2000/svg" viewBox="0 0 800 600" fill="none">
  <title>Accessibility-First Design Systems — Overview</title>
  <rect width="800" height="600" fill="#f7f3ea"/>
  <rect width="800" height="600" fill="url(#grid)" opacity="0.04"/>
  <defs>
    <pattern id="grid" width="24" height="24" patternUnits="userSpaceOnUse">
      <rect width="24" height="24" fill="none"/>
      <path d="M 24 0 L 0 0 0 24" fill="none" stroke="#14130f" strokeWidth="0.5"/>
    </pattern>
  </defs>
  <path d="M 30 30 L 30 14 L 14 14 L 14 30 Z" fill="none" stroke="#d8cfbf" strokeWidth="1.5"/>
  <path d="M 770 570 L 770 586 L 786 586 L 786 570 Z" fill="none" stroke="#d8cfbf" strokeWidth="1.5"/>
  <rect x="200" y="150" width="80" height="80" rx="4" fill="none" stroke="#00df00" strokeWidth="1.5" opacity="0.2"/>
  <rect x="300" y="150" width="80" height="80" rx="4" fill="none" stroke="#00df00" strokeWidth="1.5" opacity="0.2"/>
  <rect x="400" y="150" width="80" height="80" rx="4" fill="none" stroke="#00df00" strokeWidth="1.5" opacity="0.2"/>
  <rect x="500" y="150" width="80" height="80" rx="4" fill="none" stroke="#00df00" strokeWidth="1.5" opacity="0.2"/>
  <line x1="240" y1="270" x2="240" y2="360" stroke="#00df00" strokeWidth="1" opacity="0.12"/>
  <line x1="340" y1="270" x2="340" y2="360" stroke="#00df00" strokeWidth="1" opacity="0.12"/>
  <line x1="440" y1="270" x2="440" y2="360" stroke="#00df00" strokeWidth="1" opacity="0.12"/>
  <line x1="540" y1="270" x2="540" y2="360" stroke="#00df00" strokeWidth="1" opacity="0.12"/>
  <text x="400" y="540" fontFamily="system-ui, sans-serif" fontWeight="700" fontSize="32" fill="#14130f" textAnchor="middle" opacity="0.08">A11Y DESIGN SYSTEM</text>
  <circle cx="700" cy="150" r="5" fill="#00df00" opacity="0.3"/>
  <g opacity="0.08" transform="translate(720, 540)">
    <path d="M 5 5 v 14 h 14" stroke="#14130f" strokeWidth="2" strokeLinecap="round" strokeLinejoin="round"/>
    <line x1="17.5" y1="6.5" x2="8.5" y2="15.5" stroke="#14130f" strokeWidth="2" strokeLinecap="round"/>
    <circle cx="19.5" cy="19.5" r="1.5" fill="#ff00f0"/>
  </g>
</svg>