<svg xmlns="http://www.w3.org/2000/svg" viewBox="0 0 800 600" fill="none">
  <title>Accessibility-First Design Systems — Overview</title>
  <rect width="800" height="600" fill="#f7f3ea"/>
  <path d="M 30 30 L 30 14 L 14 14 L 14 30 Z" fill="none" stroke="#d8cfbf" strokeWidth="1.5"/>
  <path d="M 770 570 L 770 586 L 786 586 L 786 570 Z" fill="none" stroke="#d8cfbf" strokeWidth="1.5"/>
  <rect x="100" y="100" width="600" height="380" rx="4" fill="none" stroke="#d8cfbf" strokeWidth="1"/>
  <line x1="100" y1="160" x2="700" y2="160" stroke="#d8cfbf" strokeWidth="0.5" opacity="0.4"/>
  <line x1="100" y1="240" x2="700" y2="240" stroke="#d8cfbf" strokeWidth="0.5" opacity="0.4"/>
  <line x1="100" y1="320" x2="700" y2="320" stroke="#d8cfbf" strokeWidth="0.5" opacity="0.4"/>
  <line x1="100" y1="400" x2="700" y2="400" stroke="#d8cfbf" strokeWidth="0.5" opacity="0.4"/>
  <rect x="140" y="180" width="50" height="14" rx="2" fill="#00df00" opacity="0.15"/>
  <rect x="200" y="180" width="50" height="14" rx="2" fill="#00df00" opacity="0.1"/>
  <rect x="260" y="180" width="50" height="14" rx="2" fill="#00df00" opacity="0.05"/>
  <rect x="140" y="260" width="120" height="14" rx="2" fill="#14130f" opacity="0.08"/>
  <rect x="270" y="260" width="80" height="14" rx="2" fill="#14130f" opacity="0.05"/>
  <rect x="140" y="340" width="90" height="14" rx="2" fill="#ff00f0" opacity="0.1"/>
  <rect x="240" y="340" width="90" height="14" rx="2" fill="#ff00f0" opacity="0.08"/>
  <rect x="340" y="340" width="60" height="14" rx="2" fill="#ff00f0" opacity="0.05"/>
  <rect x="140" y="420" width="70" height="14" rx="2" fill="#00df00" opacity="0.12"/>
  <rect x="220" y="420" width="100" height="14" rx="2" fill="#00df00" opacity="0.08"/>
  <text x="400" y="137" fontFamily="system-ui, sans-serif" fontWeight="600" fontSize="12" fill="#14130f" textAnchor="middle" letterSpacing="0.12em" opacity="0.25">DESIGN SYSTEM SPECIMEN</text>
  <g transform="translate(500, 260)">
    <rect x="0" y="0" width="140" height="100" rx="4" fill="none" stroke="#00df00" strokeWidth="0.75" opacity="0.2"/>
    <text x="70" y="30" fontFamily="system-ui, sans-serif" fontWeight="700" fontSize="28" fill="#14130f" textAnchor="middle" opacity="0.12">Aa</text>
    <text x="70" y="50" fontFamily="system-ui, sans-serif" fontWeight="400" fontSize="10" fill="#14130f" textAnchor="middle" opacity="0.2">Space Grotesk</text>
    <text x="70" y="68" fontFamily="system-ui, sans-serif" fontWeight="400" fontSize="9" fill="#14130f" textAnchor="middle" opacity="0.15">Regular · Medium · Bold</text>
    <line x1="10" y1="80" x2="130" y2="80" stroke="#00df00" strokeWidth="0.5" opacity="0.15"/>
    <text x="70" y="93" fontFamily="system-ui, sans-serif" fontWeight="400" fontSize="8" fill="#00df00" textAnchor="middle" opacity="0.3">4.5:1 contrast ratio</text>
  </g>
  <circle cx="680" cy="130" r="3" fill="#ff00f0" opacity="0.2"/>
  <g opacity="0.06" transform="translate(720, 540)">
    <path d="M 5 5 v 14 h 14" stroke="#14130f" strokeWidth="2" strokeLinecap="round" strokeLinejoin="round"/>
    <line x1="17.5" y1="6.5" x2="8.5" y2="15.5" stroke="#14130f" strokeWidth="2" strokeLinecap="round"/>
    <circle cx="19.5" cy="19.5" r="1.5" fill="#ff00f0"/>
  </g>
</svg>
