<svg xmlns="http://www.w3.org/2000/svg" viewBox="0 0 800 600" fill="none">
  <title>Stylized Anatomy Studies — Final</title>
  <rect width="800" height="600" fill="#f7f3ea"/>
  <rect width="800" height="600" fill="url(#grid)" opacity="0.04"/>
  <defs>
    <pattern id="grid" width="24" height="24" patternUnits="userSpaceOnUse">
      <rect width="24" height="24" fill="none"/>
      <path d="M 24 0 L 0 0 0 24" fill="none" stroke="#14130f" strokeWidth="0.5"/>
    </pattern>
  </defs>
  <path d="M 30 30 L 30 14 L 14 14 L 14 30 Z" fill="none" stroke="#d8cfbf" strokeWidth="1.5"/>
  <path d="M 770 570 L 770 586 L 786 586 L 786 570 Z" fill="none" stroke="#d8cfbf" strokeWidth="1.5"/>
  <circle cx="320" cy="200" r="50" fill="none" stroke="#14130f" strokeWidth="1" opacity="0.1"/>
  <line x1="320" y1="250" x2="320" y2="380" stroke="#14130f" strokeWidth="1" opacity="0.12"/>
  <line x1="320" y1="280" x2="260" y2="320" stroke="#14130f" strokeWidth="1" opacity="0.1"/>
  <line x1="320" y1="280" x2="380" y2="320" stroke="#14130f" strokeWidth="1" opacity="0.1"/>
  <line x1="320" y1="380" x2="280" y2="440" stroke="#14130f" strokeWidth="1" opacity="0.1"/>
  <line x1="320" y1="380" x2="360" y2="440" stroke="#14130f" strokeWidth="1" opacity="0.1"/>
  <circle cx="500" cy="500" r="4" fill="#00df00" opacity="0.3"/>
  <text x="400" y="520" fontFamily="system-ui, sans-serif" fontWeight="700" fontSize="48" fill="#14130f" textAnchor="middle" opacity="0.08">ANATOMY</text>
  <g opacity="0.08" transform="translate(720, 540)">
    <path d="M 5 5 v 14 h 14" stroke="#14130f" strokeWidth="2" strokeLinecap="round" strokeLinejoin="round"/>
    <line x1="17.5" y1="6.5" x2="8.5" y2="15.5" stroke="#14130f" strokeWidth="2" strokeLinecap="round"/>
    <circle cx="19.5" cy="19.5" r="1.5" fill="#ff00f0"/>
  </g>
</svg>