<svg xmlns="http://www.w3.org/2000/svg" viewBox="0 0 800 600" fill="none">
  <title>Character Design: The Guardian — Final Artwork</title>
  <rect width="800" height="600" fill="#f7f3ea"/>
  <rect width="800" height="600" fill="url(#grid)" opacity="0.04"/>
  <defs>
    <pattern id="grid" width="24" height="24" patternUnits="userSpaceOnUse">
      <rect width="24" height="24" fill="none"/>
      <path d="M 24 0 L 0 0 0 24" fill="none" stroke="#14130f" strokeWidth="0.5"/>
    </pattern>
  </defs>
  <path d="M 30 30 L 30 14 L 14 14 L 14 30 Z" fill="none" stroke="#d8cfbf" strokeWidth="1.5"/>
  <path d="M 770 570 L 770 586 L 786 586 L 786 570 Z" fill="none" stroke="#d8cfbf" strokeWidth="1.5"/>
  <circle cx="400" cy="280" r="120" fill="none" stroke="#00df00" strokeWidth="1" opacity="0.15"/>
  <circle cx="400" cy="280" r="80" fill="none" stroke="#00df00" strokeWidth="1" opacity="0.1"/>
  <path d="M 400 160 L 400 400 M 280 280 L 520 280" stroke="#00df00" strokeWidth="0.5" opacity="0.08"/>
  <text x="400" y="260" fontFamily="system-ui, sans-serif" fontWeight="700" fontSize="72" fill="#14130f" textAnchor="middle" opacity="0.12">GUARDIAN</text>
  <text x="400" y="320" fontFamily="system-ui, sans-serif" fontWeight="700" fontSize="36" fill="#14130f" textAnchor="middle" opacity="0.08">CHARACTER DESIGN</text>
  <path d="M 340 260 Q 400 220 460 260" fill="none" stroke="#ff00f0" strokeWidth="1.5" opacity="0.2"/>
  <path d="M 340 280 Q 400 320 460 280" fill="none" stroke="#ff00f0" strokeWidth="1.5" opacity="0.2"/>
  <circle cx="520" cy="200" r="6" fill="#ff00f0" opacity="0.3"/>
  <circle cx="280" cy="380" r="4" fill="#00df00" opacity="0.3"/>
  <g opacity="0.08" transform="translate(720, 540)">
    <path d="M 5 5 v 14 h 14" stroke="#14130f" strokeWidth="2" strokeLinecap="round" strokeLinejoin="round"/>
    <line x1="17.5" y1="6.5" x2="8.5" y2="15.5" stroke="#14130f" strokeWidth="2" strokeLinecap="round"/>
    <circle cx="19.5" cy="19.5" r="1.5" fill="#ff00f0"/>
  </g>
</svg>