<svg xmlns="http://www.w3.org/2000/svg" viewBox="0 0 800 600" fill="none">
  <title>Character Design: The Guardian — Final Artwork</title>
  <rect width="800" height="600" fill="#f4efe5"/>
  <defs>
    <linearGradient id="glow" x1="0" y1="0" x2="0" y2="1">
      <stop offset="0%" stop-color="#5b8c5a" stop-opacity="0.18"/>
      <stop offset="100%" stop-color="#5b8c5a" stop-opacity="0"/>
    </linearGradient>
    <radialGradient id="centerGlow" cx="50%" cy="45%" r="35%">
      <stop offset="0%" stop-color="#5b8c5a" stop-opacity="0.15"/>
      <stop offset="100%" stop-color="#5b8c5a" stop-opacity="0"/>
    </radialGradient>
  </defs>
  <rect width="800" height="600" fill="url(#centerGlow)"/>
  <path d="M 50 50 L 50 30 L 30 30 L 30 50 Z" fill="none" stroke="#cfc1ad" strokeWidth="1.5"/>
  <path d="M 750 550 L 750 570 L 770 570 L 770 550 Z" fill="none" stroke="#cfc1ad" strokeWidth="1.5"/>
  <line x1="50" y1="300" x2="750" y2="300" stroke="#5b8c5a" strokeWidth="0.5" opacity="0.2"/>
  <line x1="400" y1="50" x2="400" y2="550" stroke="#5b8c5a" strokeWidth="0.5" opacity="0.2"/>
  <circle cx="400" cy="300" r="180" fill="none" stroke="#5b8c5a" strokeWidth="1.5" opacity="0.35"/>
  <circle cx="400" cy="300" r="140" fill="none" stroke="#5b8c5a" strokeWidth="1" opacity="0.28"/>
  <circle cx="400" cy="300" r="100" fill="none" stroke="#d4738a" strokeWidth="1" opacity="0.25"/>
  <path d="M 400 140 Q 340 200 340 300 Q 340 400 400 460" fill="none" stroke="#1f1a14" strokeWidth="1.5" opacity="0.3"/>
  <path d="M 400 140 Q 460 200 460 300 Q 460 400 400 460" fill="none" stroke="#1f1a14" strokeWidth="1.5" opacity="0.3"/>
  <path d="M 340 300 Q 370 260 400 280 Q 430 260 460 300" fill="none" stroke="#d4738a" strokeWidth="1.5" opacity="0.4"/>
  <path d="M 320 250 Q 360 220 400 240 Q 440 220 480 250" fill="none" stroke="#d4738a" strokeWidth="1" opacity="0.3"/>
  <path d="M 330 360 Q 365 330 400 345 Q 435 330 470 360" fill="none" stroke="#d4738a" strokeWidth="1" opacity="0.3"/>
  <rect x="200" y="480" width="400" height="40" rx="20" fill="#5b8c5a" opacity="0.15"/>
  <rect x="200" y="480" width="400" height="40" rx="20" fill="none" stroke="#5b8c5a" strokeWidth="1" opacity="0.4"/>
  <text x="400" y="508" fontFamily="system-ui, sans-serif" fontWeight="600" fontSize="14" fill="#5b8c5a" textAnchor="middle" letterSpacing="0.15em" opacity="1">CHARACTER DESIGN: THE GUARDIAN</text>
  <circle cx="180" cy="180" r="3" fill="#d4738a" opacity="0.6"/>
  <circle cx="620" cy="420" r="3" fill="#5b8c5a" opacity="0.6"/>
  <g opacity="0.2" transform="translate(720, 30)">
    <path d="M 5 5 v 14 h 14" stroke="#1f1a14" strokeWidth="2" strokeLinecap="round" strokeLinejoin="round"/>
    <line x1="17.5" y1="6.5" x2="8.5" y2="15.5" stroke="#1f1a14" strokeWidth="2" strokeLinecap="round"/>
    <circle cx="19.5" cy="19.5" r="1.5" fill="#d4738a"/>
  </g>
</svg>
