<svg xmlns="http://www.w3.org/2000/svg" viewBox="0 0 800 600" fill="none">
  <title>Mural Project — Completed Documentation</title>
  <rect width="800" height="600" fill="#f4efe5"/>
  <defs>
    <linearGradient id="wallGrad" x1="0" y1="0" x2="0" y2="1">
      <stop offset="0%" stop-color="#4a4032" stop-opacity="0.12"/>
      <stop offset="100%" stop-color="#4a4032" stop-opacity="0.04"/>
    </linearGradient>
  </defs>
  <rect x="60" y="80" width="680" height="400" rx="4" fill="url(#wallGrad)"/>
  <rect x="60" y="80" width="680" height="400" rx="4" fill="none" stroke="#cfc1ad" strokeWidth="1.5"/>
  <line x1="60" y1="200" x2="740" y2="200" stroke="#cfc1ad" strokeWidth="0.5" opacity="0.6"/>
  <line x1="60" y1="320" x2="740" y2="320" stroke="#cfc1ad" strokeWidth="0.5" opacity="0.6"/>
  <line x1="200" y1="80" x2="200" y2="480" stroke="#cfc1ad" strokeWidth="0.5" opacity="0.6"/>
  <line x1="400" y1="80" x2="400" y2="480" stroke="#cfc1ad" strokeWidth="0.5" opacity="0.6"/>
  <line x1="600" y1="80" x2="600" y2="480" stroke="#cfc1ad" strokeWidth="0.5" opacity="0.6"/>
  <rect x="100" y="120" width="160" height="200" rx="2" fill="#5b8c5a" opacity="0.15"/>
  <rect x="100" y="120" width="160" height="200" rx="2" fill="none" stroke="#5b8c5a" strokeWidth="1.5" opacity="0.4"/>
  <path d="M 140 200 Q 180 160 220 200 Q 180 250 140 200" fill="none" stroke="#5b8c5a" strokeWidth="1.5" opacity="0.5"/>
  <circle cx="180" cy="220" r="3" fill="#5b8c5a" opacity="0.7"/>
  <rect x="300" y="100" width="200" height="300" rx="2" fill="#d4738a" opacity="0.1"/>
  <rect x="300" y="100" width="200" height="300" rx="2" fill="none" stroke="#d4738a" strokeWidth="1.5" opacity="0.3"/>
  <path d="M 350 180 Q 400 140 450 180" fill="none" stroke="#d4738a" strokeWidth="1.5" opacity="0.42"/>
  <path d="M 350 280 Q 400 320 450 280" fill="none" stroke="#d4738a" strokeWidth="1" opacity="0.35"/>
  <rect x="550" y="150" width="120" height="250" rx="2" fill="#5b8c5a" opacity="0.12"/>
  <rect x="550" y="150" width="120" height="250" rx="2" fill="none" stroke="#5b8c5a" strokeWidth="1.5" opacity="0.35"/>
  <path d="M 590 250 L 630 200 L 610 250 L 630 300 Z" fill="none" stroke="#5b8c5a" strokeWidth="1" opacity="0.42"/>
  <path d="M 100 350 Q 200 380 300 350" fill="none" stroke="#cfc1ad" strokeWidth="0.75" opacity="0.6"/>
  <path d="M 400 350 Q 500 380 600 350" fill="none" stroke="#cfc1ad" strokeWidth="0.75" opacity="0.6"/>
  <text x="400" y="540" fontFamily="system-ui, sans-serif" fontWeight="600" fontSize="13" textAnchor="middle" letterSpacing="0.1em">
    <tspan fill="#5b8c5a" opacity="1">MURAL PROJECT</tspan>
    <tspan fill="#1f1a14" opacity="0.6" dx="8">MANILA COMMUNITY WALL</tspan>
  </text>
  <g opacity="0.2" transform="translate(720, 540)">
    <path d="M 5 5 v 14 h 14" stroke="#1f1a14" strokeWidth="2" strokeLinecap="round" strokeLinejoin="round"/>
    <line x1="17.5" y1="6.5" x2="8.5" y2="15.5" stroke="#1f1a14" strokeWidth="2" strokeLinecap="round"/>
    <circle cx="19.5" cy="19.5" r="1.5" fill="#d4738a"/>
  </g>
</svg>
