<svg xmlns="http://www.w3.org/2000/svg" viewBox="0 0 800 600" fill="none">
  <title>Mural Project — Concept Sketches</title>
  <rect width="800" height="600" fill="#f7f3ea"/>
  <rect width="800" height="600" fill="url(#grid)" opacity="0.04"/>
  <defs>
    <pattern id="grid" width="24" height="24" patternUnits="userSpaceOnUse">
      <rect width="24" height="24" fill="none"/>
      <path d="M 24 0 L 0 0 0 24" fill="none" stroke="#14130f" strokeWidth="0.5"/>
    </pattern>
  </defs>
  <path d="M 30 30 L 30 14 L 14 14 L 14 30 Z" fill="none" stroke="#d8cfbf" strokeWidth="1.5"/>
  <path d="M 770 570 L 770 586 L 786 586 L 786 570 Z" fill="none" stroke="#d8cfbf" strokeWidth="1.5"/>
  <rect x="100" y="120" width="200" height="140" fill="none" stroke="#14130f" strokeWidth="1" opacity="0.1" rx="4"/>
  <rect x="340" y="120" width="200" height="140" fill="none" stroke="#14130f" strokeWidth="1" opacity="0.1" rx="4"/>
  <rect x="100" y="300" width="200" height="140" fill="none" stroke="#14130f" strokeWidth="1" opacity="0.1" rx="4"/>
  <rect x="340" y="300" width="200" height="140" fill="none" stroke="#14130f" strokeWidth="1" opacity="0.1" rx="4"/>
  <text x="200" y="370" fontFamily="system-ui, sans-serif" fontWeight="500" fontSize="24" fill="#14130f" textAnchor="middle" opacity="0.06">sketch</text>
  <circle cx="600" cy="160" r="5" fill="#00df00" opacity="0.25"/>
  <circle cx="600" cy="320" r="5" fill="#ff00f0" opacity="0.2"/>
  <g opacity="0.08" transform="translate(720, 540)">
    <path d="M 5 5 v 14 h 14" stroke="#14130f" strokeWidth="2" strokeLinecap="round" strokeLinejoin="round"/>
    <line x1="17.5" y1="6.5" x2="8.5" y2="15.5" stroke="#14130f" strokeWidth="2" strokeLinecap="round"/>
    <circle cx="19.5" cy="19.5" r="1.5" fill="#ff00f0"/>
  </g>
</svg>