<svg xmlns="http://www.w3.org/2000/svg" viewBox="0 0 800 600" fill="none">
  <title>Process Documentation — General Notes</title>
  <rect width="800" height="600" fill="#eee8dc"/>
  <rect width="800" height="600" fill="url(#grid)" opacity="0.05"/>
  <defs>
    <pattern id="grid" width="24" height="24" patternUnits="userSpaceOnUse">
      <rect width="24" height="24" fill="none"/>
      <path d="M 24 0 L 0 0 0 24" fill="none" stroke="#14130f" strokeWidth="0.5"/>
    </pattern>
  </defs>
  <path d="M 30 30 L 30 14 L 14 14 L 14 30 Z" fill="none" stroke="#d8cfbf" strokeWidth="1.5"/>
  <path d="M 770 570 L 770 586 L 786 586 L 786 570 Z" fill="none" stroke="#d8cfbf" strokeWidth="1.5"/>
  <line x1="120" y1="150" x2="680" y2="150" stroke="#14130f" strokeWidth="1" opacity="0.06"/>
  <line x1="120" y1="200" x2="680" y2="200" stroke="#14130f" strokeWidth="1" opacity="0.06"/>
  <line x1="120" y1="250" x2="680" y2="250" stroke="#14130f" strokeWidth="1" opacity="0.06"/>
  <line x1="120" y1="300" x2="680" y2="300" stroke="#14130f" strokeWidth="1" opacity="0.06"/>
  <line x1="120" y1="350" x2="680" y2="350" stroke="#14130f" strokeWidth="1" opacity="0.06"/>
  <line x1="120" y1="400" x2="680" y2="400" stroke="#14130f" strokeWidth="1" opacity="0.06"/>
  <line x1="120" y1="450" x2="680" y2="450" stroke="#14130f" strokeWidth="1" opacity="0.06"/>
  <text x="400" y="120" fontFamily="system-ui, sans-serif" fontWeight="700" fontSize="28" fill="#14130f" textAnchor="middle" opacity="0.08">PROCESS NOTES</text>
  <circle cx="140" cy="150" r="3" fill="#00df00" opacity="0.25"/>
  <circle cx="140" cy="200" r="3" fill="#ff00f0" opacity="0.2"/>
  <g opacity="0.08" transform="translate(720, 540)">
    <path d="M 5 5 v 14 h 14" stroke="#14130f" strokeWidth="2" strokeLinecap="round" strokeLinejoin="round"/>
    <line x1="17.5" y1="6.5" x2="8.5" y2="15.5" stroke="#14130f" strokeWidth="2" strokeLinecap="round"/>
    <circle cx="19.5" cy="19.5" r="1.5" fill="#ff00f0"/>
  </g>
</svg>